<?xml version="1.0" standalone="no"?>
<!DOCTYPE svg PUBLIC "-//W3C//DTD SVG 20010904//EN"
 "http://www.w3.org/TR/2001/REC-SVG-20010904/DTD/svg10.dtd">
<svg version="1.0" xmlns="http://www.w3.org/2000/svg"
 width="749.000000pt" height="749.000000pt" viewBox="0 0 749.000000 749.000000"
 preserveAspectRatio="xMidYMid meet">
<metadata>
Created by potrace 1.14, written by Peter Selinger 2001-2017
</metadata>
<g transform="translate(0.000000,749.000000) scale(0.100000,-0.100000)"
fill="#000000" stroke="none">
<path d="M1980 7215 l0 -265 1755 0 1755 0 0 265 0 265 -1755 0 -1755 0 0
-265z"/>
<path d="M3455 6069 c-933 -77 -1747 -540 -2227 -1267 -261 -397 -414 -814
-484 -1322 -24 -179 -30 -591 -10 -777 40 -372 118 -677 251 -977 150 -338
331 -604 589 -862 218 -218 419 -365 691 -505 431 -223 854 -329 1380 -346
368 -11 706 31 1060 134 486 141 966 439 1293 803 501 558 762 1274 762 2090
0 537 -102 992 -325 1446 -220 447 -538 812 -950 1089 -425 285 -920 452
-1469 495 -148 11 -415 11 -561 -1z m613 -364 c861 -119 1360 -717 1516 -1815
42 -295 51 -441 51 -845 -1 -555 -41 -924 -142 -1295 -62 -230 -169 -480 -275
-642 -147 -226 -360 -419 -583 -531 -147 -73 -365 -136 -570 -163 -143 -20
-476 -22 -610 -5 -534 69 -910 289 -1177 688 -227 339 -364 804 -420 1433 -17
192 -17 848 0 1040 70 778 264 1312 606 1668 126 130 237 214 385 291 223 114
460 175 761 195 95 6 351 -5 458 -19z"/>
<path d="M3611 2389 c-306 -60 -553 -301 -616 -600 -48 -229 8 -469 154 -652
179 -225 489 -334 774 -271 119 26 261 101 352 186 524 489 181 1356 -533
1347 -48 -1 -107 -5 -131 -10z"/>
</g>
</svg>
