<svg width="919" height="252" viewBox="0 0 919 252" fill="none" xmlns="http://www.w3.org/2000/svg">
<path d="M627.549 0H509.549V18H627.549V0Z" fill="white"/>
<path d="M568.739 48.72C539.009 48.72 513.679 59.06 495.769 76.98C477.859 94.9 467.439 120.34 467.439 150.42C467.439 180.49 477.859 205.83 495.769 223.66C513.679 241.48 539.019 251.73 568.749 251.73C598.479 251.73 623.729 241.49 641.549 223.67C659.369 205.84 669.699 180.5 669.699 150.43C669.699 120.36 659.369 94.92 641.549 76.99C623.709 59.06 598.459 48.72 568.739 48.72ZM615.579 217.42C605.099 232.04 589.479 239.23 568.729 239.23C547.979 239.23 532.269 231.95 521.699 217.29C511.079 202.56 505.559 180.26 505.559 150.06C505.559 119.86 511.169 97.64 521.829 83.01C532.449 68.43 548.159 61.24 568.729 61.24C589.299 61.24 604.919 68.43 615.439 83.01C626.009 97.65 631.529 119.86 631.529 150.07C631.539 180.44 626.109 202.74 615.579 217.42Z" fill="white"/>
<path d="M568.549 223.6C582.909 223.6 594.549 211.959 594.549 197.6C594.549 183.241 582.909 171.6 568.549 171.6C554.19 171.6 542.549 183.241 542.549 197.6C542.549 211.959 554.19 223.6 568.549 223.6Z" fill="white"/>
<path d="M418.769 231.2L343.689 53.4L343.429 52.79H330.359L330.099 53.39L252.639 231.2L229.409 237.6V247.84L297.349 247.59V237.6L270.019 231.2L288.219 190.43H365.819L383.369 231.2L358.529 237.6V247.84H441.999V237.6L418.769 231.2ZM359.769 175.87H294.519L327.729 99.09L359.769 175.87Z" fill="white"/>
<path d="M184.999 231.2L111.309 129.82L170.899 68.55L195.239 62.6V52.61L122.619 52.86V62.6L147.239 68.55L79.2394 136.87H57.4794V68.6L84.5794 62.6V52.38L0.359375 52.63V62.6L24.6994 68.6L24.9994 231.2L0.359375 237.6V247.84H84.8094V237.6L57.7594 231.2L57.4594 152.53H83.9994L145.089 231.2L120.759 237.6V248.09L207.949 247.84V237.6L184.999 231.2Z" fill="white"/>
<path d="M850.539 52.11V62.05L874.819 68.05V200.05L752.599 51.45H706.999V55.05L727.069 76.3V230.66L702.999 236.94V247.75L770.649 247.7V237.15L746.999 230.59V94.05L869.999 247.75H893.999V68.05L918.369 62.05V52.14L850.539 52.11Z" fill="white"/>
</svg>
