<svg width="919" height="252" viewBox="0 0 919 252" fill="none" xmlns="http://www.w3.org/2000/svg">
<path d="M627.55 0H509.55V18H627.55V0Z" fill="black"/>
<path d="M568.74 48.72C539.01 48.72 513.68 59.06 495.77 76.98C477.86 94.9 467.44 120.34 467.44 150.42C467.44 180.49 477.86 205.83 495.77 223.66C513.68 241.48 539.02 251.73 568.75 251.73C598.48 251.73 623.73 241.49 641.55 223.67C659.37 205.84 669.7 180.5 669.7 150.43C669.7 120.36 659.37 94.92 641.55 76.99C623.71 59.06 598.46 48.72 568.74 48.72ZM615.58 217.42C605.1 232.04 589.48 239.23 568.73 239.23C547.98 239.23 532.27 231.95 521.7 217.29C511.08 202.56 505.56 180.26 505.56 150.06C505.56 119.86 511.17 97.64 521.83 83.01C532.45 68.43 548.16 61.24 568.73 61.24C589.3 61.24 604.92 68.43 615.44 83.01C626.01 97.65 631.53 119.86 631.53 150.07C631.54 180.44 626.11 202.74 615.58 217.42Z" fill="black"/>
<path d="M568.55 223.6C582.91 223.6 594.55 211.959 594.55 197.6C594.55 183.241 582.91 171.6 568.55 171.6C554.191 171.6 542.55 183.241 542.55 197.6C542.55 211.959 554.191 223.6 568.55 223.6Z" fill="black"/>
<path d="M418.77 231.2L343.69 53.4L343.43 52.79H330.36L330.1 53.39L252.64 231.2L229.41 237.6V247.84L297.35 247.59V237.6L270.02 231.2L288.22 190.43H365.82L383.37 231.2L358.53 237.6V247.84H442V237.6L418.77 231.2ZM359.77 175.87H294.52L327.73 99.09L359.77 175.87Z" fill="black"/>
<path d="M185 231.2L111.31 129.82L170.9 68.55L195.24 62.6V52.61L122.62 52.86V62.6L147.24 68.55L79.2404 136.87H57.4803V68.6L84.5804 62.6V52.38L0.360352 52.63V62.6L24.7004 68.6L25.0004 231.2L0.360352 237.6V247.84H84.8104V237.6L57.7604 231.2L57.4604 152.53H84.0004L145.09 231.2L120.76 237.6V248.09L207.95 247.84V237.6L185 231.2Z" fill="black"/>
<path d="M850.54 52.11V62.05L874.82 68.05V200.05L752.6 51.45H707V55.05L727.07 76.3V230.66L703 236.94V247.75L770.65 247.7V237.15L747 230.59V94.05L870 247.75H894V68.05L918.37 62.05V52.14L850.54 52.11Z" fill="black"/>
</svg>
